<?xml version="1.0" ?><svg style="enable-background:new 0 0 32 32;" version="1.1" viewBox="0 0 32 32" xml:space="preserve" xmlns="http://www.w3.org/2000/svg" xmlns:xlink="http://www.w3.org/1999/xlink"><style type="text/css">
	.st0{display:none;}
	.st1{fill:none;}
</style><g class="st0" id="grid"/><g id="Layer_2"><g><path d="M16,4.09c-6.07,0-11,4.93-11,11c0,0.71,0.07,1.42,0.21,2.11l1.96-0.4C7.06,16.24,7,15.67,7,15.09c0-4.96,4.04-9,9-9    s9,4.04,9,9s-4.04,9-9,9c-0.45,0-1.37-0.11-1.68-0.16l-0.33-0.04l-2.45,1.33l0-2.29l-0.45-0.3c-0.02-0.01-1.68-1.11-2.87-3.14    l-1.72,1.01c1.04,1.77,2.37,2.94,3.05,3.48l0,4.61l4.83-2.63c0.42,0.05,1.15,0.13,1.63,0.13c6.07,0,11-4.93,11-11    S22.07,4.09,16,4.09z"/><polygon points="16.29,17.71 17.02,18.43 17.64,17.77 23,12 17.15,15.73 14.71,13.29 13.98,12.56 13.38,13.22 9,18 13.82,15.24       "/></g></g></svg>