<!DOCTYPE svg PUBLIC "-//W3C//DTD SVG 20010904//EN" "http://www.w3.org/TR/2001/REC-SVG-20010904/DTD/svg10.dtd">
<svg version="1.0" xmlns="http://www.w3.org/2000/svg" width="79px" height="79px" viewBox="0 0 790 790" preserveAspectRatio="xMidYMid meet">
<g id="layer101" fill="#de3b3c" stroke="none">
 <path d="M270 763 c-89 -59 -130 -132 -130 -228 0 -79 24 -135 80 -190 42 -41 63 -43 36 -3 -9 12 -16 42 -16 65 0 38 3 45 27 54 35 13 79 2 98 -24 22 -32 18 -103 -11 -198 -32 -107 -29 -167 11 -209 42 -44 53 -39 47 20 -6 60 16 101 109 204 151 170 172 341 56 464 -17 17 -35 32 -39 32 -5 0 -1 -15 9 -32 11 -22 17 -57 17 -108 1 -64 -4 -85 -31 -142 -18 -38 -37 -68 -42 -68 -7 0 -11 27 -11 68 0 81 -19 117 -87 166 -55 40 -69 59 -78 110 -8 41 -11 42 -45 19z"/>
 <path d="M475 743 c23 -53 34 -91 35 -111 0 -33 24 -23 28 12 4 34 -35 116 -55 116 -11 0 -13 -5 -8 -17z"/>
 </g>

</svg>